
<svg width="199" height="48" viewBox="0 0 199 48" fill="none" xmlns="http://www.w3.org/2000/svg">

<g transform="translate(0.000000,143.000000) scale(0.100000,-0.100000)"
fill="#000000" stroke="none">
<path d="M890 1340 c-78 -14 -151 -72 -217 -170 -50 -75 -74 -129 -84 -192 -5
-33 -20 -81 -34 -107 -13 -26 -30 -72 -39 -102 -18 -61 -2 -48 -205 -154 -131
-68 -192 -128 -225 -222 l-15 -43 354 0 c338 0 355 1 355 18 0 10 -23 57 -52
103 -43 70 -52 93 -54 139 l-3 55 7 -51 c5 -32 20 -72 41 -105 49 -77 71 -121
71 -141 0 -17 13 -18 166 -18 l167 0 -7 32 c-3 18 -20 47 -37 64 -17 18 -28
37 -24 43 3 6 9 9 13 7 4 -2 41 21 82 53 75 56 143 143 216 277 34 63 30 82
-34 154 -27 30 -53 66 -57 80 -12 42 -51 85 -94 105 -22 11 -41 22 -41 25 0 8
-72 4 -100 -5 -14 -4 -31 -15 -38 -24 -11 -13 -12 -13 -7 -1 4 10 2 9 -8 -2
-8 -10 -17 -15 -20 -12 -3 4 -41 -28 -83 -70 -43 -41 -79 -74 -80 -73 -2 1 24
35 57 74 32 40 59 75 59 78 0 3 -11 10 -25 15 -14 5 -25 14 -25 20 0 5 15 3
34 -6 33 -16 35 -16 109 21 l76 38 48 -16 c31 -10 60 -13 83 -8 l34 7 -24 17
c-13 9 -37 17 -53 17 -19 0 -38 10 -57 30 -17 18 -30 26 -32 18 -3 -9 -15 -6
-44 8 -45 24 -104 33 -154 24z m-129 -380 c10 -6 35 -11 55 -12 31 -1 38 -6
50 -34 28 -68 5 -164 -52 -214 -53 -46 -57 -36 -7 15 43 42 49 65 18 65 -8 0
-21 -13 -30 -29 -21 -42 -63 -71 -99 -70 l-31 1 35 7 c50 10 59 18 81 65 38
84 14 181 -51 203 -27 9 -30 12 -12 12 13 1 32 -4 43 -9z m457 -15 c6 -5 13
-24 16 -40 16 -75 -70 -96 -129 -31 -33 36 -55 46 -55 25 0 -6 16 -29 35 -50
19 -22 35 -43 35 -48 0 -6 15 -7 33 -4 44 7 56 -10 48 -67 -6 -39 -8 -42 -15
-22 -11 32 -50 49 -72 31 -12 -10 -15 -24 -11 -57 6 -56 20 -71 49 -53 22 14
22 13 6 -10 -10 -15 -23 -23 -36 -21 -21 3 -35 -21 -36 -63 -1 -16 -8 -20 -35
-21 -19 -1 -37 -6 -39 -12 -2 -7 -8 -12 -13 -12 -4 0 -6 7 -3 15 6 15 -20 22
-29 8 -2 -5 -3 -3 -1 3 1 6 -9 18 -23 25 l-25 13 37 32 c28 23 36 36 31 49 -5
15 -14 17 -53 11 -39 -5 -50 -3 -70 16 -28 26 -29 45 -3 53 11 3 23 17 26 30
3 13 14 31 25 41 25 22 26 79 2 93 -12 6 -14 13 -8 19 11 10 110 49 140 55 39
7 164 2 173 -8z m-468 -23 c31 -25 40 -114 16 -160 -23 -44 -28 -40 -11 8 23
64 0 141 -48 160 l-22 9 21 0 c12 1 32 -7 44 -17z m182 -404 c-7 -7 -12 -8
-12 -2 0 14 12 26 19 19 2 -3 -1 -11 -7 -17z m99 -31 c-10 -9 -11 -8 -5 6 3
10 9 15 12 12 3 -3 0 -11 -7 -18z"/>
<path d="M937 772 c-18 -19 -22 -48 -11 -76 5 -12 20 -16 59 -16 44 0 55 3 60
19 3 11 12 22 20 25 8 3 15 12 15 20 0 42 -111 64 -143 28z"/>
<path d="M1053 648 c-11 -13 -26 -34 -33 -47 -11 -22 -11 -23 9 -18 11 3 21 1
21 -4 0 -5 4 -9 9 -9 10 0 31 54 31 81 0 25 -12 24 -37 -3z"/>
<path d="M529 225 c-14 -23 -28 -35 -43 -35 -12 0 -37 -16 -56 -35 -39 -40
-53 -45 -41 -12 23 63 -24 62 -93 -3 -58 -54 -92 -66 -81 -27 4 12 16 31 27
42 16 17 18 17 12 3 -4 -12 -1 -18 9 -18 16 0 30 27 21 41 -12 20 -52 7 -86
-28 -30 -31 -34 -42 -27 -61 12 -32 34 -37 72 -15 32 20 33 20 49 -1 l16 -21
43 22 44 22 7 -20 c5 -14 14 -19 23 -15 8 3 22 9 30 12 8 3 15 1 15 -5 0 -17
25 -13 51 8 22 18 23 18 40 -2 14 -19 19 -19 47 -8 17 7 38 21 48 32 21 23 8
25 -17 3 -10 -9 -26 -14 -36 -12 -14 3 -12 7 15 23 33 20 48 47 37 65 -12 20
-37 9 -85 -36 -56 -52 -62 -46 -25 26 41 80 27 128 -16 55z m-149 -64 c0 -5
-7 -16 -15 -25 -8 -8 -15 -22 -15 -30 0 -17 -15 -22 -24 -8 -7 11 31 72 44 72
5 0 10 -4 10 -9z m111 -20 c-6 -10 -17 -23 -25 -31 -21 -17 -21 3 0 35 18 28
40 24 25 -4z m139 4 c-7 -9 -15 -13 -18 -10 -3 2 1 11 8 20 7 9 15 13 18 10 3
-2 -1 -11 -8 -20z"/>
<path d="M767 203 c-4 -3 -7 -16 -7 -28 0 -13 -7 -28 -15 -35 -8 -7 -15 -18
-15 -24 1 -6 12 2 25 19 32 39 41 27 15 -18 -33 -55 -12 -74 40 -37 28 20 28
20 33 0 7 -25 28 -25 69 0 41 25 44 25 51 0 7 -27 27 -25 86 9 l50 30 -11 -25
c-19 -42 2 -41 43 4 48 51 58 54 30 7 -30 -51 -8 -53 40 -3 24 25 38 35 34 23
-27 -72 -8 -86 47 -34 24 22 27 27 11 19 -28 -13 -30 -2 -8 40 18 35 5 48 -27
26 -19 -14 -23 -14 -33 0 -9 13 -14 13 -37 -5 -27 -21 -43 -27 -34 -13 2 4 1
14 -4 22 -8 12 -18 6 -49 -30 l-39 -45 2 40 c2 57 -25 58 -79 5 l-42 -42 1 38
c2 58 -25 57 -85 -2 -53 -52 -57 -52 -35 1 15 36 14 39 -16 36 -10 -1 -18 4
-18 13 0 17 -12 21 -23 9z m156 -72 c-5 -3 -12 -14 -16 -23 -6 -18 -27 -25
-27 -10 0 4 10 23 22 42 18 29 23 32 26 16 2 -10 0 -21 -5 -25z m120 0 c-5 -3
-12 -14 -16 -23 -6 -18 -27 -25 -27 -10 0 4 10 23 22 42 18 29 23 32 26 16 2
-10 0 -21 -5 -25z"/>
</g>
</svg>
